<svg xmlns="http://www.w3.org/2000/svg" viewBox="0 0 120 120" fill="none">
  <defs>
    <linearGradient id="yycafeGradient" x1="22" y1="16" x2="98" y2="104" gradientUnits="userSpaceOnUse">
      <stop stop-color="#2f4d34" />
      <stop offset="1" stop-color="#6fa26d" />
    </linearGradient>
  </defs>
  <circle cx="60" cy="60" r="54" fill="url(#yycafeGradient)" />
  <circle cx="60" cy="60" r="46" fill="#f8f3ea" />
  <path
    fill="#2f4d34"
    d="M34 42h36c5 0 9 4 9 9v10c0 9.9-8.1 18-18 18h-6.6a4.4 4.4 0 0 0-3.9 2.4l-3.8 7.4c-.8 1.5-2.9 1.5-3.7 0l-3.8-7.4A4.4 4.4 0 0 0 43 79H43c-9.9 0-18-8.1-18-18V51c0-5 4-9 9-9Z"
  />
  <path fill="#e5d9c8" d="M36 48c-2.2 0-4 1.8-4 4v8c0 6.6 5.4 12 12 12h12V48Z" />
  <path fill="#6fa26d" d="M72 36c10 3 17 11 16 22-10.5 3-20.5-3-24-12 1.6-5 4.6-8 8-10Z" />
  <path stroke="#2f4d34" stroke-linecap="round" stroke-width="3" d="M50 36c2-6 8-6 10 0M64 36c2-6 8-6 10 0" />
</svg>

